<?xml version="1.0" standalone="no"?>
<!DOCTYPE svg PUBLIC "-//W3C//DTD SVG 20010904//EN"
 "http://www.w3.org/TR/2001/REC-SVG-20010904/DTD/svg10.dtd">
<svg version="1.0" xmlns="http://www.w3.org/2000/svg"
 width="30.000000pt" height="29.000000pt" viewBox="0 0 30.000000 29.000000"
 preserveAspectRatio="xMidYMid meet">

<g transform="translate(0.000000,29.000000) scale(0.100000,-0.100000)"
fill="#000000" stroke="none">
<path d="M80 268 c-99 -51 -107 -191 -15 -248 39 -24 45 -25 45 -5 0 8 -6 15
-13 15 -8 0 -24 11 -37 25 -26 28 -17 34 11 9 18 -16 49 -13 49 5 0 5 -11 12
-25 15 -33 8 -51 51 -36 84 6 12 11 32 11 44 0 15 4 18 18 13 21 -9 102 -10
122 -1 12 5 18 -4 25 -36 15 -63 8 -89 -25 -101 -25 -10 -28 -14 -23 -46 7
-46 7 -46 40 -26 96 58 95 193 -2 251 -52 30 -88 30 -145 2z"/>
</g>
</svg>
