<?xml version="1.0" standalone="no"?>
<!DOCTYPE svg PUBLIC "-//W3C//DTD SVG 20010904//EN"
 "http://www.w3.org/TR/2001/REC-SVG-20010904/DTD/svg10.dtd">
<svg version="1.0" xmlns="http://www.w3.org/2000/svg"
 width="20.000000pt" height="20.000000pt" viewBox="0 0 20.000000 20.000000"
 preserveAspectRatio="xMidYMid meet">

<g transform="translate(0.000000,20.000000) scale(0.100000,-0.100000)"
fill="#000000" stroke="none">
<path d="M0 100 l0 -100 100 0 100 0 0 100 0 100 -100 0 -100 0 0 -100z m175
-5 l0 -70 -75 0 -75 0 -3 59 c-5 87 -4 87 80 84 l73 -3 0 -70z"/>
<path d="M140 145 c0 -8 5 -15 10 -15 6 0 10 7 10 15 0 8 -4 15 -10 15 -5 0
-10 -7 -10 -15z"/>
<path d="M74 105 c-4 -9 -2 -21 4 -27 16 -16 47 -5 47 17 0 26 -42 34 -51 10z"/>
<path d="M32 73 l3 -38 65 0 65 0 3 38 c2 27 -1 37 -12 37 -8 0 -16 -10 -18
-21 -2 -12 -11 -27 -20 -33 -23 -14 -52 3 -56 33 -2 11 -10 21 -18 21 -11 0
-14 -10 -12 -37z"/>
</g>
</svg>
