<?xml version="1.0" standalone="no"?>
<!DOCTYPE svg PUBLIC "-//W3C//DTD SVG 20010904//EN"
 "http://www.w3.org/TR/2001/REC-SVG-20010904/DTD/svg10.dtd">
<svg version="1.0" xmlns="http://www.w3.org/2000/svg"
 width="20.000000pt" height="20.000000pt" viewBox="0 0 20.000000 20.000000"
 preserveAspectRatio="xMidYMid meet">

<g transform="translate(0.000000,20.000000) scale(0.100000,-0.100000)"
fill="#000000" stroke="none">
<path d="M0 100 l0 -100 100 0 100 0 0 100 0 100 -100 0 -100 0 0 -100z m171
64 c22 -20 26 -81 6 -108 -7 -10 -32 -21 -55 -26 -50 -9 -46 1 6 15 34 10 37
13 40 54 2 23 -2 49 -9 57 -14 17 -100 19 -117 2 -17 -17 -15 -83 3 -98 22
-18 18 -33 -5 -20 -42 22 -33 121 12 140 32 14 96 5 119 -16z m-86 -51 c0 -10
11 -20 24 -23 14 -3 26 -11 29 -18 5 -16 -3 -15 -37 3 -29 14 -41 33 -41 63 0
13 3 13 12 4 7 -7 13 -20 13 -29z m46 14 c-13 -13 -26 -3 -16 12 3 6 11 8 17
5 6 -4 6 -10 -1 -17z"/>
</g>
</svg>
