<?xml version="1.0" standalone="no"?>
<!DOCTYPE svg PUBLIC "-//W3C//DTD SVG 20010904//EN"
 "http://www.w3.org/TR/2001/REC-SVG-20010904/DTD/svg10.dtd">
<svg version="1.0" xmlns="http://www.w3.org/2000/svg"
 width="20.000000pt" height="19.000000pt" viewBox="0 0 20.000000 19.000000"
 preserveAspectRatio="xMidYMid meet">

<g transform="translate(0.000000,19.000000) scale(0.100000,-0.100000)"
fill="#000000" stroke="none">
<path d="M0 95 l0 -95 100 0 100 0 0 95 0 95 -42 -1 c-24 -1 -33 -4 -21 -6 51
-10 71 -95 33 -133 -11 -11 -33 -20 -48 -20 -15 0 -34 -6 -42 -12 -12 -11 -12
-10 -1 5 7 9 24 17 37 17 12 0 30 7 38 16 19 18 21 85 4 102 -16 16 -100 16
-116 0 -18 -18 -15 -97 3 -104 8 -4 15 -16 15 -27 0 -18 -4 -16 -25 13 -39 53
-30 120 18 140 19 7 16 9 -15 9 l-38 1 0 -95z m80 26 c0 -22 19 -41 35 -35 16
7 29 -12 15 -21 -24 -15 -89 52 -75 75 9 14 25 2 25 -19z m50 9 c8 -5 11 -10
5 -10 -5 0 -17 5 -25 10 -8 5 -10 10 -5 10 6 0 17 -5 25 -10z"/>
</g>
</svg>
